<?xml version="1.0" encoding="UTF-8"?><svg id="Layer_1" xmlns="http://www.w3.org/2000/svg" viewBox="0 0 125 125"><defs><style>.cls-1{fill:#fff;}</style></defs><g id="mxbdkj"><g><path class="cls-1" d="M60.98,40.39h30.64c1.94,0,3.11,1.16,3.11,3.11,0,1.6,0,3.19,0,4.79,0,.49-.15,.68-.64,.65-.58-.03-1.15-.02-1.73,0-.44,.02-.61-.15-.61-.6,.02-1.44,0-2.88,0-4.3,0-.7,0-.71-.72-.71H30.57c-.24,0-.37,.12-.37,.37v37.86c0,.58,.28,.86,.85,.86h38.82c.67,0,1.01,.33,1.01,.99v3.93c0,.63,.04,1.26,.37,1.83,.19,.32,.04,.42-.28,.41h-.49c-16.14,0-32.28-.02-48.42,.03-1.89,0-3.42-1.34-3.26-3.33,.06-.75,.29-1.04,1.05-1.04,1.4,0,2.8,0,4.2,0,.86,0,1.73-.02,2.59,0,.46,0,.61-.16,.59-.6-.03-.43,0-.86,0-1.29V43.5c0-1.42,.63-2.41,1.82-2.91,.43-.18,.85-.21,1.29-.21h30.64Zm.04,44.98h-5.7c-.17,0-.4-.07-.48,.14-.09,.21,.06,.38,.18,.54,.32,.4,.76,.54,1.24,.56,.56,.03,1.11,.02,1.67,.02h7.43c.61,0,1.19-.07,1.63-.56,.14-.16,.3-.36,.19-.58-.09-.2-.32-.11-.5-.12h-5.65Z"/><path class="cls-1" d="M72.17,69.86v-17.5c0-1.42,.73-2.16,2.14-2.16h25.25c1.41,0,2.17,.75,2.17,2.15,0,1.92,0,3.84,0,5.76,0,.5-.16,.69-.65,.65-.34-.03-.68-.02-1.02,0-.42,.02-.57-.15-.57-.57,.02-1.24-.02-2.48,.02-3.72,0-.52-.14-.67-.66-.67-7.94,.02-15.87,.02-23.81,0-.56,0-.68,.18-.68,.7,0,10,0,20,0,30q0,.69,.72,.69h16.05c.51,0,.77,.26,.77,.78v2.21c0,.16,0,.33,.05,.48q.2,.9-.71,.9h-16.91c-1.51,0-2.19-.69-2.19-2.21v-17.5h.02Z"/><path class="cls-1" d="M108.75,74.85v12.92c0,1.33-.5,1.82-1.83,1.82h-12.01c-1.2,0-1.74-.54-1.74-1.74v-26.01c0-1.3,.54-1.83,1.84-1.83h11.9c1.33,0,1.84,.52,1.84,1.86v12.97h0Zm-13.45-.39v10.01q0,.72,.69,.72h9.8q.77,0,.77-.77v-20.08q0-.72-.7-.72h-9.85q-.71,0-.71,.72c0,3.37,0,6.75,0,10.12Z"/></g></g></svg>