<?xml version="1.0" encoding="UTF-8"?><svg id="Layer_1" xmlns="http://www.w3.org/2000/svg" viewBox="0 0 77.82 42.58"><defs><style>.cls-1{fill:#fff;}</style></defs><g id="mxbdkj"><g><path class="cls-1" d="M36.49,0h26.51c1.68,0,2.69,1,2.69,2.69,0,1.38,0,2.76,0,4.15,0,.42-.13,.59-.56,.57-.5-.03-1-.02-1.49,0-.38,.02-.52-.13-.52-.51,.02-1.24,0-2.49,0-3.72,0-.61,0-.62-.63-.62H10.18c-.21,0-.32,.1-.32,.32V35.62c0,.5,.25,.75,.74,.75H44.19c.58,0,.88,.29,.88,.86v3.4c0,.55,.03,1.09,.32,1.58,.16,.27,.03,.36-.24,.35h-.42c-13.96,0-27.93-.02-41.89,.03-1.64,0-2.96-1.16-2.82-2.88,.05-.65,.25-.9,.91-.9,1.21,0,2.42,0,3.63,0,.75,0,1.49-.02,2.24,0,.39,0,.52-.14,.51-.51-.03-.37,0-.75,0-1.12V2.69c0-1.23,.55-2.09,1.57-2.51,.37-.15,.74-.18,1.12-.18h26.51Zm.03,38.92h-4.93c-.15,0-.34-.06-.41,.12-.08,.18,.05,.33,.15,.46,.27,.34,.66,.46,1.07,.48,.48,.03,.96,.02,1.44,.02h6.43c.52,0,1.03-.06,1.41-.48,.12-.14,.26-.31,.16-.5-.08-.17-.27-.09-.43-.1h-4.89Z"/><path class="cls-1" d="M46.17,25.5V10.36c0-1.23,.64-1.87,1.85-1.87h21.85c1.22,0,1.88,.65,1.88,1.86,0,1.66,0,3.32,0,4.99,0,.43-.14,.6-.57,.57-.29-.03-.59-.02-.88,0-.36,.02-.49-.13-.49-.49,.02-1.07-.02-2.15,.02-3.22,0-.45-.12-.58-.57-.58-6.87,.02-13.73,.02-20.6,0-.48,0-.59,.15-.59,.61,0,8.65,0,17.3,0,25.95q0,.6,.63,.6h13.89c.44,0,.66,.23,.67,.68v1.91c0,.14,0,.28,.04,.41q.17,.78-.62,.78h-14.63c-1.3,0-1.9-.6-1.9-1.91v-15.14h.02Z"/><path class="cls-1" d="M77.82,29.81v11.18c0,1.15-.43,1.57-1.58,1.57h-10.39c-1.04,0-1.5-.46-1.5-1.5V18.56c0-1.12,.46-1.58,1.59-1.58h10.3c1.15,0,1.59,.45,1.59,1.61v11.23h0Zm-11.64-.33v8.66q0,.63,.6,.63h8.48q.67,0,.67-.67V20.73q0-.63-.61-.63h-8.52q-.62,0-.62,.63c0,2.92,0,5.84,0,8.75Z"/></g></g></svg>